<svg width="320" height="400" fill="none" xmlns="http://www.w3.org/2000/svg"><path fill="#73CEF2" d="M0 0h320v400H0z"/><mask id="a" maskUnits="userSpaceOnUse" x="0" y="0" width="320" height="400"><path fill="#73CEF2" d="M0 0h320v400H0z"/></mask><g mask="url(#a)" fill="#1794CE"><path d="M164.938 131.324L285.244 9.035l210.834 214.31-120.306 122.288zM178.954-.383l50.981-51.821L280.916-.383l-50.98 51.822zM292.346.621L343.327-51.2 394.308.62l-50.98 51.822z"/></g><path d="M121.29 350.549c.948 0 2.204-.042 3.766-.125 1.458-.084 2.542-.125 3.25-.125 2.823 0 4.974.656 6.453 1.968 1.49 1.313 2.235 3.391 2.235 6.235 0 1.812-.37 3.364-1.11 4.656-.729 1.292-1.807 2.276-3.234 2.953-1.417.677-3.141 1.016-5.172 1.016-1.083 0-1.99-.011-2.719-.032v7.235h-4.969v-23.781h1.5zm6.063 12.812c1.396 0 2.526-.37 3.391-1.109.875-.74 1.312-2.011 1.312-3.813 0-1.51-.406-2.656-1.219-3.437-.812-.792-1.989-1.157-3.531-1.094-.604.021-1.099.047-1.484.078a6.738 6.738 0 00-1.063.141v9.109c.677.083 1.542.125 2.594.125zm22.812-7.141c.678 0 1.141.073 1.391.219v4.703a3.127 3.127 0 00-.828-.312c-.302-.084-.74-.125-1.313-.125-1.5 0-2.822.536-3.968 1.609v12.016h-4.875v-17.813h4.328l.219 2.438c.26-.459.645-.896 1.156-1.313a6.717 6.717 0 011.797-1.015 5.662 5.662 0 012.093-.407zm3.907 9.032c0-1.907.375-3.532 1.125-4.875.75-1.354 1.791-2.375 3.125-3.063 1.333-.698 2.864-1.047 4.593-1.047 1.969 0 3.589.417 4.86 1.25a7.079 7.079 0 012.765 3.328c.584 1.386.875 2.954.875 4.704 0 1.916-.375 3.552-1.125 4.906-.75 1.354-1.791 2.38-3.125 3.078-1.333.698-2.859 1.047-4.578 1.047-1.979 0-3.604-.417-4.875-1.25a7.27 7.27 0 01-2.781-3.344c-.573-1.406-.859-2.984-.859-4.734zm12.297.312c0-1.666-.297-3.052-.891-4.156-.594-1.115-1.495-1.672-2.703-1.672-2.438 0-3.656 1.813-3.656 5.438 0 1.093.125 2.093.375 3 .26.895.661 1.614 1.203 2.156.552.541 1.239.812 2.062.812 2.406 0 3.61-1.859 3.61-5.578zm16.921-9.297c1.053 0 2.006.094 2.86.282.854.177 1.443.385 1.765.625l-.609 3.765a5.22 5.22 0 00-1.5-.515c-.542-.115-1.213-.172-2.016-.172-.75 0-1.463.161-2.14.484-.677.313-1.24.828-1.688 1.547-.448.708-.687 1.625-.718 2.75-.032 1.24.135 2.281.5 3.125.364.844.88 1.474 1.546 1.891.678.406 1.448.609 2.313.609.781 0 1.526-.068 2.234-.203.719-.146 1.266-.323 1.641-.531l.703 2.89c-.552.531-1.323.959-2.312 1.281-.99.323-2.042.485-3.157.485-1.791 0-3.312-.38-4.562-1.141a7.226 7.226 0 01-2.813-3.172c-.625-1.354-.937-2.896-.937-4.625 0-1.791.328-3.396.984-4.812a7.546 7.546 0 012.985-3.344c1.333-.812 2.974-1.219 4.921-1.219zm23.079 6.985c0 1.5-.058 2.614-.172 3.343h-10.532c.094 1.469.553 2.563 1.375 3.282.834.718 1.959 1.078 3.375 1.078.678 0 1.495-.089 2.454-.266.968-.187 1.677-.406 2.125-.656l.796 2.766c-.614.5-1.536.921-2.765 1.265a14.198 14.198 0 01-3.844.516c-1.792 0-3.318-.365-4.578-1.094-1.26-.729-2.214-1.781-2.859-3.156-.646-1.386-.969-3.042-.969-4.969 0-1.75.338-3.312 1.015-4.687a7.651 7.651 0 012.954-3.235c1.302-.781 2.849-1.172 4.64-1.172 1.292 0 2.459.235 3.5.703 1.042.469 1.875 1.224 2.5 2.266.636 1.042.964 2.38.985 4.016zm-4.532.64c.011-.156.016-.385.016-.687 0-1.136-.214-1.995-.641-2.578-.427-.594-1.119-.891-2.078-.891-.958 0-1.724.318-2.297.953-.562.625-.927 1.693-1.093 3.203h6.093zm23.125-.64c0 1.5-.057 2.614-.172 3.343h-10.531c.094 1.469.552 2.563 1.375 3.282.834.718 1.959 1.078 3.375 1.078.677 0 1.495-.089 2.453-.266.969-.187 1.677-.406 2.125-.656l.797 2.766c-.614.5-1.536.921-2.765 1.265-1.23.344-2.511.516-3.844.516-1.792 0-3.318-.365-4.578-1.094-1.261-.729-2.214-1.781-2.86-3.156-.645-1.386-.968-3.042-.968-4.969 0-1.75.338-3.312 1.015-4.687a7.649 7.649 0 012.953-3.235c1.302-.781 2.849-1.172 4.641-1.172 1.292 0 2.458.235 3.5.703 1.042.469 1.875 1.224 2.5 2.266.635 1.042.964 2.38.984 4.016zm-4.531.64c.011-.156.016-.385.016-.687 0-1.136-.214-1.995-.641-2.578-.427-.594-1.12-.891-2.078-.891-.958 0-1.724.318-2.297.953-.562.625-.927 1.693-1.094 3.203h6.094zm24.344-15.531v26.219h-3.313c-.395 0-.692-.063-.89-.188-.188-.114-.282-.354-.282-.718v-1.204c-.572.584-1.27 1.084-2.093 1.5-.813.407-1.86.61-3.141.61-1.302 0-2.489-.318-3.562-.953-1.073-.646-1.933-1.615-2.579-2.907-.635-1.291-.953-2.864-.953-4.718 0-1.948.375-3.657 1.125-5.125.761-1.469 1.823-2.604 3.188-3.407 1.375-.802 2.958-1.203 4.75-1.203 1.062 0 2.036.167 2.922.5l-.047-1.562v-6.844h4.875zm-11.703 17.359c0 1.834.297 3.136.89 3.907.605.771 1.469 1.156 2.594 1.156a6.42 6.42 0 001.844-.266c.604-.177 1.104-.401 1.5-.672v-9.609c-.292-.198-.662-.328-1.11-.391a10.406 10.406 0 00-1.625-.109c-.802 0-1.51.224-2.125.672-.614.448-1.098 1.12-1.453 2.016-.343.895-.515 1.994-.515 3.296zm21.937-9.203v17.813h-4.875v-17.813h4.875zm-5.469-5.265c0-.521.146-1.006.438-1.453a3.152 3.152 0 011.156-1.063 3.034 3.034 0 011.516-.406c.854 0 1.536.25 2.047.75.51.489.765 1.125.765 1.906 0 .521-.145 1.01-.437 1.469a3.153 3.153 0 01-1.141 1.078c-.469.26-.974.391-1.515.391a2.993 2.993 0 01-1.438-.344 2.632 2.632 0 01-1.016-.953 2.573 2.573 0 01-.375-1.375zm15.329 5.265l.093 1.907c.719-.542 1.615-1.037 2.688-1.485 1.073-.448 2.109-.687 3.109-.719 1.281-.041 2.328.162 3.141.61.812.437 1.417 1.172 1.812 2.203.407 1.021.61 2.396.61 4.125v11.172h-4.875v-10.125c0-1.011-.078-1.792-.235-2.344-.156-.562-.422-.963-.797-1.203-.375-.24-.906-.349-1.593-.328-.521.01-1.11.13-1.766.359a5.222 5.222 0 00-1.734 1v12.641h-4.875v-17.813h4.422zm34.109 3.532h-2.953c.208.604.312 1.281.312 2.031 0 1.906-.692 3.359-2.078 4.359-1.375 1-3.323 1.5-5.844 1.5a9.704 9.704 0 01-1.546-.109 1.72 1.72 0 00-.5.656c-.115.25-.172.516-.172.797 0 .5.156.833.468 1 .313.167.86.25 1.641.25h2.969c2.625 0 4.422.51 5.39 1.531.98 1.011 1.469 2.297 1.469 3.86 0 1.333-.427 2.489-1.281 3.468-.844.979-1.969 1.724-3.375 2.235-1.406.51-2.922.765-4.547.765-2.76 0-4.896-.448-6.406-1.343-1.5-.886-2.25-2.172-2.25-3.86 0-.823.25-1.557.75-2.203.51-.635 1.177-1.135 2-1.5-.5-.26-.87-.63-1.11-1.109a3.541 3.541 0 01-.343-1.547c0-.709.218-1.391.656-2.047.437-.656 1.167-1.193 2.187-1.609-1.135-.49-2.031-1.167-2.687-2.032a4.803 4.803 0 01-.969-2.922c0-2.041.698-3.541 2.094-4.5 1.396-.968 3.354-1.453 5.875-1.453 2.302 0 4.099.433 5.391 1.297a4.383 4.383 0 011.234-.75c.479-.198 1.026-.297 1.641-.297h1.984v3.532zm-10.484 4.906c1.02 0 1.812-.198 2.375-.594.573-.396.859-1.109.859-2.141 0-.968-.255-1.697-.766-2.187-.5-.5-1.25-.75-2.25-.75-1.01 0-1.807.219-2.39.656-.573.427-.86 1.167-.86 2.219 0 .875.261 1.562.782 2.062.52.49 1.27.735 2.25.735zm-1.75 9.375c-.23 0-.552-.011-.969-.031-.438.395-.656 1-.656 1.812 0 .979.302 1.792.906 2.438.614.645 1.583.968 2.906.968 1.375 0 2.448-.213 3.219-.64.781-.417 1.172-1.078 1.172-1.985 0-.614-.094-1.104-.282-1.468-.187-.355-.572-.625-1.156-.813-.583-.187-1.448-.281-2.594-.281h-2.546z" fill="#fff"/></svg>